<svg width="52" height="45" viewBox="0 0 52 45" fill="none" xmlns="http://www.w3.org/2000/svg">
<path d="M9.75 41.2515H4.46367C2.00586 41.2515 0 39.5156 0 37.3843V16.9893C0 14.8579 2.00586 13.1265 4.46367 13.1265H10.8316C11.4207 13.1265 11.9844 13.333 12.3957 13.7021C12.802 14.0713 13.0203 14.5635 13 15.0732L11.9184 39.4497C11.8727 40.4517 10.9129 41.2515 9.75 41.2515ZM4.46367 16.875C4.39258 16.875 4.33164 16.9277 4.33164 16.9893V37.3843C4.33164 37.4458 4.39258 37.4985 4.46367 37.4985H7.66289L8.58203 16.875H4.46367Z" fill="#B1C900"/>
<path d="M41.1531 41.2515H14.0004L15.2496 13.1265H21.2266L24.8828 4.2583C25.934 1.70947 28.7422 0 31.8652 0C34.0184 0 36.0598 0.808594 37.4664 2.21484C38.8731 3.62109 39.5078 5.48438 39.2031 7.32568L38.2434 13.1265H45.4848C49.075 13.1265 51.9949 15.6533 51.9949 18.7603L51.9441 19.1689L47.6582 35.8418C47.5262 38.8433 44.657 41.2515 41.1531 41.2515ZM18.4996 37.4985H41.1531C42.3516 37.4985 43.3316 36.6548 43.3316 35.6133L43.3824 35.2046L47.6582 18.5889C47.5566 17.6309 46.6223 16.875 45.4898 16.875H33.2516L34.9172 6.79395C35.0441 6.01611 34.7902 5.26465 34.1961 4.67139C33.602 4.07812 32.7742 3.75293 31.8652 3.75293C30.5652 3.75293 29.4023 4.46484 28.9656 5.52393L24.2785 16.875H19.4188L18.4996 37.4985Z" fill="#B1C900"/>
</svg>
