<svg width="52" height="49" viewBox="0 0 52 49" fill="none" xmlns="http://www.w3.org/2000/svg">
<path d="M29.7122 27.2222C32.858 27.2954 35.9063 26.1903 38.1888 24.1492C40.4713 22.1081 41.8019 19.2974 41.8889 16.3333C41.8019 13.3693 40.4713 10.5586 38.1888 8.5175C35.9063 6.47636 32.858 5.37127 29.7122 5.44446H17.3333C16.9502 5.44446 16.5828 5.58786 16.312 5.84312C16.0411 6.09838 15.8889 6.44458 15.8889 6.80557V24.5H13C12.6169 24.5 12.2495 24.6434 11.9786 24.8987C11.7077 25.1539 11.5556 25.5001 11.5556 25.8611C11.5556 26.2221 11.7077 26.5683 11.9786 26.8236C12.2495 27.0788 12.6169 27.2222 13 27.2222H15.8889V29.9445H13C12.6169 29.9445 12.2495 30.0879 11.9786 30.3431C11.7077 30.5984 11.5556 30.9446 11.5556 31.3056C11.5556 31.6666 11.7077 32.0128 11.9786 32.268C12.2495 32.5233 12.6169 32.6667 13 32.6667H15.8889V42.1945C15.8889 42.5554 16.0411 42.9017 16.312 43.1569C16.5828 43.4122 16.9502 43.5556 17.3333 43.5556C17.7164 43.5556 18.0838 43.4122 18.3547 43.1569C18.6256 42.9017 18.7778 42.5554 18.7778 42.1945V32.6667H31.7778C32.1609 32.6667 32.5283 32.5233 32.7992 32.268C33.07 32.0128 33.2222 31.6666 33.2222 31.3056C33.2222 30.9446 33.07 30.5984 32.7992 30.3431C32.5283 30.0879 32.1609 29.9445 31.7778 29.9445H18.7778V27.2222H29.7122ZM18.7778 8.16668H29.7122C32.0909 8.09678 34.4024 8.91619 36.1424 10.4461C37.8824 11.9761 38.9096 14.0924 39 16.3333C38.9134 18.5755 37.8873 20.6939 36.1464 22.2246C34.4056 23.7553 32.092 24.5735 29.7122 24.5H18.7778V8.16668Z" fill="#B1C900"/>
</svg>
