<svg width="44" height="43" fill="none" xmlns="http://www.w3.org/2000/svg"><path d="M28.92 30.322l.985-.943-2.287-2.215-.984.943 2.286 2.215zm4.29-1.338l4.13 2.162 1.549-2.743-4.13-2.163-1.548 2.744zm4.925 6.46l-3.07 2.942L37.35 40.6l3.07-2.94-2.285-2.215zm-4.941 3.889c-3.134.281-11.242.03-20.021-8.378l-2.286 2.214c9.58 9.176 18.697 9.625 22.608 9.274l-.301-3.11zm-20.021-8.378c-8.368-8.016-9.754-14.757-9.927-17.682l-3.237.177c.217 3.681 1.934 11.152 10.878 19.72l2.286-2.216zm2.972-12.87l.62-.593-2.286-2.215-.62.594 2.286 2.215zm1.114-8.162l-2.726-3.507-2.595 1.871 2.725 3.508 2.596-1.872zM5.366 5.653L1.974 8.901l2.286 2.215 3.392-3.25-2.286-2.215zm9.636 11.326c-1.143-1.108-1.144-1.106-1.146-1.105l-.003.003-.006.006-.014.014a1.272 1.272 0 00-.098.105 2.57 2.57 0 00-.163.209 3.141 3.141 0 00-.352.663c-.221.564-.34 1.308-.191 2.23.29 1.801 1.578 4.18 4.878 7.341l2.286-2.215c-3.088-2.957-3.824-4.757-3.96-5.605-.065-.404.002-.603.02-.65.012-.03.017-.032.004-.012a.542.542 0 01-.068.08l-.02.02a.285.285 0 01-.012.011l-.005.006a.038.038 0 01-.003.003c-.002.002-.004.003-1.147-1.104zm2.905 9.466c3.3 3.162 5.782 4.392 7.656 4.669.957.141 1.729.028 2.315-.181.287-.104.515-.225.688-.337a2.626 2.626 0 00.327-.249l.014-.013.007-.006a.048.048 0 01.003-.003c.002-.002.003-.003-1.14-1.11a87.214 87.214 0 01-1.14-1.11l.003-.004.006-.005a.298.298 0 00.011-.011l.022-.02a.778.778 0 01.083-.064c.02-.013.016-.007-.016.005-.053.019-.265.084-.691.02-.894-.131-2.775-.839-5.862-3.796l-2.286 2.215zm-3.374-20.03C12.33 3.58 7.998 3.133 5.366 5.653l2.286 2.215c1.15-1.1 3.19-.989 4.286.42l2.595-1.871zM3.246 13.274c-.043-.72.3-1.473 1.014-2.156L1.974 8.902C.812 10.014-.101 11.589.009 13.45l3.237-.177zm31.819 25.113c-.594.569-1.23.89-1.871.947l.3 3.11c1.589-.143 2.89-.916 3.857-1.843l-2.286-2.214zm-18.3-20.894c2.128-2.038 2.287-5.262.494-7.57l-2.596 1.873c.873 1.122.743 2.595-.184 3.482l2.287 2.215zM37.34 31.146c1.768.926 2.044 3.103.795 4.299l2.287 2.214c2.897-2.774 2.003-7.405-1.533-9.256l-1.549 2.744zm-7.435-1.767c.83-.795 2.166-.992 3.306-.395l1.548-2.744c-2.342-1.227-5.249-.888-7.14.924l2.286 2.215z" fill="#B1C900"/></svg>