<svg width="64" height="64" fill="none" xmlns="http://www.w3.org/2000/svg"><g clip-path="url(#clip0_45_110)"><path d="M32 0c17.673 0 32 14.327 32 32 0 17.673-14.327 32-32 32C14.327 64 0 49.673 0 32 0 14.327 14.327 0 32 0zm14.213 19.2c-1.22.022-3.09.664-12.09 4.36-3.153 1.295-9.454 3.974-18.903 8.038-1.535.603-2.338 1.192-2.412 1.768-.14 1.107 1.473 1.451 3.503 2.102 1.655.531 3.881 1.153 5.039 1.177 1.05.023 2.221-.404 3.515-1.281 8.828-5.884 13.385-8.858 13.671-8.922.202-.045.482-.102.671.064.19.167.171.482.151.566-.16.676-8.453 8.123-8.93 8.613l-.23.23c-1.758 1.737-3.536 2.87-.469 4.866 2.77 1.801 4.38 2.95 7.233 4.797 1.823 1.18 3.253 2.579 5.135 2.408.866-.079 1.76-.883 2.215-3.281 1.074-5.667 3.185-17.946 3.672-23.006a5.579 5.579 0 00-.054-1.26c-.043-.249-.133-.604-.461-.866-.389-.312-.988-.377-1.256-.373z" fill="#B1C900"/></g><defs><clipPath id="clip0_45_110"><path fill="#fff" d="M0 0h64v64H0z"/></clipPath></defs></svg>