<svg width="62" height="62" fill="none" xmlns="http://www.w3.org/2000/svg"><path d="M31 .28C14.034.28.28 14.034.28 31S14.034 61.72 31 61.72 61.72 47.966 61.72 31 47.966.28 31 .28zm11.814 34.66s2.717 2.68 3.386 3.926c.02.025.029.05.035.064.272.457.336.812.202 1.078-.224.442-.992.66-1.255.678h-4.8c-.332 0-1.03-.086-1.875-.668-.65-.455-1.29-1.2-1.913-1.927-.932-1.081-1.738-2.016-2.55-2.016a.98.98 0 00-.305.048c-.614.199-1.401 1.075-1.401 3.411 0 .73-.576 1.15-.983 1.15h-2.198c-.749 0-4.65-.263-8.106-3.908-4.23-4.464-8.038-13.418-8.07-13.5-.24-.58.256-.89.797-.89h4.848c.646 0 .857.393 1.004.742.173.406.807 2.022 1.847 3.84 1.686 2.963 2.72 4.166 3.549 4.166a.96.96 0 00.444-.115c1.082-.601.88-4.457.832-5.257 0-.15-.003-1.725-.556-2.48-.397-.548-1.072-.756-1.482-.832.166-.23.384-.415.637-.541.742-.371 2.08-.426 3.408-.426h.739c1.44.02 1.811.112 2.333.243 1.056.253 1.078.935.985 3.268a50.885 50.885 0 00-.057 2.294c0 .192-.01.397-.01.614-.032 1.188-.07 2.535.768 3.088a.69.69 0 00.365.106c.291 0 1.168 0 3.542-4.074a31.086 31.086 0 001.904-4.076c.048-.084.19-.34.356-.439a.852.852 0 01.396-.093h5.7c.62 0 1.046.093 1.126.333.14.381-.026 1.543-2.627 5.066l-1.162 1.533c-2.358 3.09-2.358 3.248.147 5.593z" fill="#B1C900"/></svg>