<svg width="212" height="45" viewBox="0 0 212 45" fill="none" xmlns="http://www.w3.org/2000/svg">
<path fill-rule="evenodd" clip-rule="evenodd" d="M75.719 26.8304V21.7536C75.719 17.6859 73.6655 15.7562 68.532 15.7562C66.7639 15.7562 64.2544 16.2016 62.3149 17.033L63.6839 21.1597C65.1954 20.6252 66.7639 20.3283 67.5909 20.3283C69.188 20.3283 69.5589 20.6549 69.5589 22.1097V22.3176H68.7603C63.8264 22.3176 61.2313 24.277 61.2313 27.8102C61.2313 30.7791 63.2562 32.9466 66.3076 32.9466C68.0188 32.9466 69.787 32.4121 70.9277 30.6307C71.8688 32.145 73.2664 32.6496 75.2912 32.7983L76.5744 28.6119C75.8902 28.3447 75.719 27.8992 75.719 26.8304ZM68.3039 28.3447C67.7622 28.3447 67.3629 27.8399 67.3629 27.1569C67.3629 26.1178 67.9619 25.6726 69.2735 25.6726H69.5589V27.6914C69.2735 28.0477 68.8174 28.3447 68.3039 28.3447ZM79.013 16.3796L78.6994 22.4066C78.4425 26.9788 78.1859 27.1569 76.5602 28.0773L78.0718 32.6792C83.3194 31.7292 83.804 29.087 84.3745 22.6147L84.5124 21.0113H85.7007V32.2934H92.0319V16.3796H79.013ZM108.744 15.7562C104.666 15.7562 102.242 18.1314 101.443 22.1395H100.074V16.3796H93.743V32.2934H100.074V26.3852H101.386C102.156 30.7494 104.666 32.9466 108.744 32.9466C113.108 32.9466 116.273 29.6807 116.273 24.3958C116.273 18.6657 113.079 15.7562 108.744 15.7562ZM108.744 28.2556C107.774 28.2556 107.489 27.3056 107.489 24.3068C107.489 21.5456 107.774 20.4174 108.744 20.4174C109.714 20.4174 109.999 21.3675 109.999 24.3958C109.999 27.1866 109.657 28.2556 108.744 28.2556ZM122.547 15.7562C119.895 15.7562 117.756 16.3796 115.902 17.6266L118.783 20.9519C119.724 20.3581 120.551 20.0613 121.578 20.0613C122.319 20.0613 122.633 20.5065 122.633 21.1003C122.633 21.7833 122.462 22.2879 121.521 22.2879H119.524L119.182 26.1772H121.92C123.032 26.1772 123.232 26.7117 123.232 27.3353C123.232 27.9289 123.032 28.4931 121.863 28.4931C120.722 28.4931 119.81 28.3744 118.384 27.5727L115.503 31.0761C117.243 32.3528 119.439 32.9466 122.062 32.9466C126.711 32.9466 129.677 31.2246 129.677 27.8102C129.677 25.4352 128.223 24.2176 125.371 23.8615C127.681 23.2973 128.993 22.0801 128.993 20.2393C128.993 17.4782 126.283 15.7562 122.547 15.7562ZM145.648 16.3796H139.602L135.809 26.5336C136.35 24.6038 136.721 22.8817 136.721 20.7739V16.3796H130.761V32.2934H136.778L140.628 22.3176C140.115 24.2474 139.716 25.9991 139.716 28.0773V32.2934H145.648V16.3796Z" fill="#324146"/>
<path fill-rule="evenodd" clip-rule="evenodd" d="M27.6047 15.8504C27.7115 15.8223 27.8172 15.798 27.9216 15.778C21.3493 13.0579 17.5522 8.75507 16.5301 2.86904C16.4042 2.14379 16.3208 1.39521 16.279 0.622131H20.0687C20.5027 0.622131 20.9328 0.641105 21.3578 0.678059C20.6424 5.18146 21.7117 8.76347 24.5657 11.4248C22.5407 9.30543 21.8852 5.77748 22.6005 0.840009C23.8219 1.05284 24.996 1.41656 26.1044 1.91189C24.8969 4.42429 24.8303 6.8701 25.9033 9.24902C25.6047 6.34632 25.9602 4.04061 26.9704 2.33281C28.5786 3.17841 30.0266 4.30977 31.2535 5.66068V27.6543C29.3059 29.7988 26.8 31.3891 23.9841 32.1645C25.1128 30.8455 26.0592 28.8643 26.823 26.2203C25.2706 30.2511 21.4737 32.4847 16.77 32.3991C22.3228 29.4416 26.1336 26.5185 26.7812 23.8485C25.2774 26.4725 21.3967 27.4006 19.2783 26.9815C25.6574 25.6263 25.9617 21.3011 28.1625 17.7452C28.1331 17.7531 28.1037 17.7612 28.0743 17.7694C26.8996 18.0806 25.8423 17.9032 25.713 17.3736C25.5832 16.8437 26.4307 16.1617 27.6047 15.8504ZM2.92603 17.5285C3.66417 17.8643 4.18001 18.6311 4.18001 19.5233C4.18001 20.7251 3.24438 21.6988 2.09034 21.6988C0.935827 21.6988 0 20.7251 0 19.5233C0 18.6311 0.516143 17.8643 1.25418 17.5285V0.622131H14.6241H14.6022C14.644 1.39521 14.7281 2.14379 14.8538 2.86904H2.92595L2.92603 17.5285ZM18.3675 30.4459H4.66541V32.6926H14.2046C15.7823 31.9802 17.1702 31.2316 18.3675 30.4459ZM17.7085 27.1325H4.66541V29.3794H19.8496C20.3865 28.9525 20.8715 28.516 21.305 28.0693C19.535 27.9238 18.336 27.6113 17.7085 27.1325ZM23.2131 23.8185H4.66541V26.0654H19.4593C21.0319 25.4114 22.2743 24.6648 23.2131 23.8185ZM25.2818 20.5047H5.64613C5.47462 21.1801 5.13029 21.7824 4.66541 22.2571V22.7516H24.1971C24.7171 22.0609 25.0755 21.3132 25.2818 20.5047ZM24.6721 17.1908H5.00737C5.46892 17.8159 5.74979 18.593 5.76735 19.4377H25.4649C25.5257 18.7798 24.4195 18.1787 24.6721 17.1908ZM21.319 13.8775H4.66541V16.1242H24.2679C23.209 15.4149 22.2237 14.6666 21.319 13.8775ZM18.1992 10.5634H4.66541V12.8103H20.1715C19.4499 12.0936 18.7909 11.3454 18.1992 10.5634ZM16.1996 7.24972H4.66541V9.49643H17.4473C16.976 8.77463 16.5588 8.02646 16.1996 7.24972ZM15.0646 3.93558H4.66541V6.18288H15.749C15.4719 5.45733 15.2429 4.70866 15.0646 3.93558Z" fill="#324146"/>
<path fill-rule="evenodd" clip-rule="evenodd" d="M159.1 21.3686H156.25V19.6631H152.319V36.7168H156.25V35.0117H159.1V38.2178C159.1 38.8088 158.937 39.2752 158.609 39.6159C158.282 39.9571 157.834 40.1277 157.266 40.1277H151.303C150.735 40.1277 150.287 39.9571 149.96 39.6159C149.632 39.2752 149.468 38.8088 149.468 38.2178V18.1624C149.468 17.5712 149.632 17.1051 149.96 16.764C150.287 16.4228 150.735 16.2523 151.303 16.2523H157.266C157.834 16.2523 158.282 16.4228 158.609 16.764C158.937 17.1051 159.1 17.5712 159.1 18.1624V21.3686ZM167.422 40.1277H164.572V19.6631H161.066V16.2523H170.895V19.6631H167.422V40.1277ZM182.493 40.1277H179.643V31.2596H175.711V40.1277H172.861V18.1624C172.861 17.5712 173.025 17.1051 173.352 16.764C173.68 16.4228 174.128 16.2523 174.695 16.2523H180.658C181.226 16.2523 181.674 16.4228 182.001 16.764C182.329 17.1051 182.493 17.5712 182.493 18.1624V40.1277ZM179.643 27.8489V19.6631H175.711V27.8489H179.643ZM187.636 40.1277H184.786V16.2523H192.584C193.151 16.2523 193.599 16.4228 193.927 16.764C194.255 17.1051 194.419 17.5712 194.419 18.1624V29.0086C194.419 29.5998 194.255 30.0659 193.927 30.407C193.599 30.7482 193.151 30.9187 192.584 30.9187H187.636V40.1277ZM187.636 27.5079H191.568V19.6631H187.636V27.5079ZM202.74 40.1277H199.89V19.6631H196.384V16.2523H206.213V19.6631H202.74V40.1277Z" fill="#B1C900"/>
<path fill-rule="evenodd" clip-rule="evenodd" d="M4.31772 34.4532V40.1615H145.653V34.4532H4.31772Z" fill="#324146"/>
<path fill-rule="evenodd" clip-rule="evenodd" d="M60.2575 0.521454H50.7318L44.7177 12.4487H43.0936V0.521454H34.0068V12.4487H32.3827L32.3599 12.4035V19.4407H34.0065V32.4191H43.0934V19.4407H44.9368L50.2046 32.4191H61.0471L53.1017 14.505L60.2575 0.521454Z" fill="#324146"/>
<path fill-rule="evenodd" clip-rule="evenodd" d="M62.7813 7.2001H206.189V12.9086H62.7813V7.2001Z" fill="#B1C900"/>
</svg>
