<svg width="27" height="24" viewBox="0 0 27 24" fill="none" xmlns="http://www.w3.org/2000/svg">
<path d="M17.752 15.6414L18.2644 15.1885L17.0745 14.1248L16.5622 14.5777L17.752 15.6414ZM19.9852 14.9988L22.1346 16.0374L22.9405 14.7196L20.7912 13.681L19.9852 14.9988ZM22.5483 18.1016L20.9502 19.5141L22.14 20.5778L23.7381 19.1653L22.5483 18.1016ZM19.9764 19.9689C18.3452 20.104 14.1251 19.9836 9.55602 15.9452L8.36617 17.0089C13.3522 21.4158 18.0978 21.631 20.133 21.4624L19.9764 19.9689ZM9.55602 15.9452C5.20072 12.0958 4.47927 8.85815 4.38946 7.45355L2.70468 7.53866C2.8177 9.30649 3.71103 12.8945 8.36617 17.0089L9.55602 15.9452ZM11.1033 9.76491L11.4259 9.47972L10.2361 8.41605L9.91344 8.70123L11.1033 9.76491ZM11.6827 5.84451L10.2642 4.16011L8.91328 5.05905L10.3318 6.74346L11.6827 5.84451ZM5.49303 3.79349L3.72723 5.35418L4.91707 6.41786L6.68287 4.85717L5.49303 3.79349ZM10.5084 9.23307C9.91344 8.70123 9.91263 8.70194 9.91182 8.70266C9.91155 8.7029 9.91074 8.70363 9.91019 8.70412C9.90909 8.70511 9.90796 8.70611 9.90683 8.70714C9.90454 8.70921 9.90218 8.71136 9.89975 8.7136C9.89488 8.71809 9.88973 8.72295 9.88431 8.72819C9.87345 8.73866 9.86154 8.75064 9.84878 8.76417C9.82327 8.79122 9.79437 8.82453 9.764 8.86438C9.7031 8.94427 9.63675 9.0499 9.58044 9.18274C9.46555 9.45379 9.40395 9.8111 9.48117 10.2536C9.63219 11.1188 10.3026 12.2618 12.0199 13.7796L13.2097 12.7159C11.6026 11.2955 11.2198 10.4311 11.1487 10.0236C11.1148 9.82966 11.1499 9.73421 11.1596 9.71161C11.1655 9.69763 11.1683 9.6962 11.1611 9.70575C11.1575 9.71042 11.1515 9.71773 11.1422 9.72758C11.1376 9.73251 11.1321 9.73809 11.1256 9.74431C11.1224 9.74742 11.119 9.75069 11.1152 9.75412C11.1134 9.75584 11.1115 9.75759 11.1094 9.75939C11.1084 9.76029 11.1074 9.7612 11.1064 9.76212C11.106 9.76258 11.1052 9.76328 11.1048 9.76351C11.104 9.76421 11.1033 9.76491 10.5084 9.23307ZM12.0199 13.7796C13.7378 15.2979 15.0296 15.8888 16.0047 16.0218C16.5029 16.0897 16.9047 16.0355 17.2094 15.9346C17.3588 15.8851 17.4778 15.8268 17.5678 15.7732C17.6128 15.7464 17.6504 15.7209 17.6809 15.6984C17.6962 15.6872 17.7097 15.6767 17.7215 15.6671C17.7275 15.6623 17.733 15.6578 17.7381 15.6535C17.7406 15.6513 17.743 15.6492 17.7454 15.6472C17.7465 15.6462 17.7476 15.6452 17.7487 15.6442C17.7493 15.6437 17.7502 15.643 17.7504 15.6428C17.7512 15.6421 17.752 15.6414 17.1571 15.1095C16.5622 14.5777 16.563 14.577 16.5638 14.5763C16.564 14.5761 16.5648 14.5754 16.5654 14.5749C16.5664 14.574 16.5674 14.5731 16.5684 14.5722C16.5705 14.5705 16.5724 14.5688 16.5744 14.5671C16.5783 14.5638 16.582 14.5608 16.5855 14.5579C16.5925 14.5523 16.5988 14.5474 16.6044 14.5434C16.6154 14.5352 16.6236 14.53 16.6287 14.5269C16.6392 14.5207 16.637 14.5235 16.6204 14.529C16.5928 14.5381 16.4824 14.5694 16.2606 14.5391C15.7956 14.4758 14.8163 14.1358 13.2097 12.7159L12.0199 13.7796ZM10.2642 4.16011C9.11745 2.79852 6.86252 2.58307 5.49303 3.79349L6.68287 4.85717C7.28101 4.3285 8.34332 4.38231 8.91328 5.05905L10.2642 4.16011ZM4.38946 7.45355C4.36733 7.10744 4.54591 6.7459 4.91707 6.41786L3.72723 5.35418C3.12274 5.88845 2.64752 6.64475 2.70468 7.53866L4.38946 7.45355ZM20.9502 19.5141C20.641 19.7874 20.3096 19.9413 19.9764 19.9689L20.133 21.4624C20.9594 21.3939 21.6365 21.0228 22.14 20.5778L20.9502 19.5141ZM11.4259 9.47972C12.5335 8.5008 12.6158 6.9524 11.6827 5.84451L10.3318 6.74346C10.7858 7.28244 10.7183 7.98988 10.2361 8.41605L11.4259 9.47972ZM22.1346 16.0374C23.0546 16.482 23.1979 17.5274 22.5483 18.1016L23.7381 19.1653C25.246 17.8326 24.781 15.6089 22.9405 14.7196L22.1346 16.0374ZM18.2644 15.1885C18.6964 14.8067 19.3918 14.7121 19.9852 14.9988L20.7912 13.681C19.5721 13.0919 18.0592 13.2546 17.0745 14.1248L18.2644 15.1885Z" fill="black"/>
</svg>
