<svg width="42" height="40" viewBox="0 0 42 40" fill="none" xmlns="http://www.w3.org/2000/svg">
<path d="M27.75 20C27.75 23.6818 24.6159 26.6667 20.75 26.6667C16.884 26.6667 13.75 23.6818 13.75 20C13.75 16.3181 16.884 13.3333 20.75 13.3333C24.6159 13.3333 27.75 16.3181 27.75 20ZM27.75 20V22.5C27.75 24.8012 29.7088 26.6667 32.125 26.6667C34.5412 26.6667 36.5 24.8012 36.5 22.5V20C36.5 11.7157 29.4486 5 20.75 5C12.0515 5 5 11.7157 5 20C5 28.2843 12.0515 35 20.75 35H27.75" stroke="#B1C900" stroke-width="3.33" stroke-linecap="round" stroke-linejoin="round"/>
</svg>
