<svg width="44" height="43" viewBox="0 0 44 43" fill="none" xmlns="http://www.w3.org/2000/svg">
<path d="M28.9201 30.3219L29.9047 29.3789L27.6184 27.1641L26.6341 28.1071L28.9201 30.3219ZM33.2109 28.9839L37.3405 31.1465L38.889 28.4026L34.7594 26.24L33.2109 28.9839ZM38.1355 35.4446L35.0648 38.3857L37.3509 40.6005L40.4215 37.6594L38.1355 35.4446ZM33.1938 39.3327C30.0599 39.614 21.9516 39.3633 13.1728 30.9545L10.8867 33.1694C20.4666 42.3454 29.5845 42.7935 33.4947 42.4425L33.1938 39.3327ZM13.1728 30.9545C4.80472 22.9393 3.41856 16.1979 3.24601 13.2732L0.00896758 13.4504C0.226113 17.1314 1.94251 24.6024 10.8867 33.1694L13.1728 30.9545ZM16.1455 18.0859L16.7655 17.4921L14.4794 15.2773L13.8595 15.8711L16.1455 18.0859ZM17.2589 9.92285L14.5334 6.41559L11.9378 8.28736L14.6634 11.7946L17.2589 9.92285ZM5.36635 5.65221L1.97363 8.90188L4.25974 11.1167L7.65245 7.86701L5.36635 5.65221ZM15.0025 16.9785C13.8595 15.8711 13.8579 15.8726 13.8564 15.8741C13.8559 15.8746 13.8543 15.8761 13.8533 15.8771C13.8511 15.8792 13.849 15.8813 13.8468 15.8834C13.8424 15.8877 13.8379 15.8922 13.8332 15.8969C13.8238 15.9062 13.8139 15.9163 13.8035 15.9273C13.7827 15.9491 13.7598 15.974 13.7353 16.0022C13.6863 16.0585 13.6307 16.1279 13.5724 16.2108C13.4554 16.3772 13.3279 16.5971 13.2197 16.8737C12.9989 17.4381 12.8806 18.1821 13.029 19.1034C13.3191 20.905 14.6072 23.2849 17.9067 26.4453L20.1928 24.2305C17.105 21.2729 16.3695 19.473 16.2329 18.6245C16.1678 18.2207 16.2352 18.022 16.2538 17.9749C16.2651 17.9458 16.2705 17.9428 16.2566 17.9627C16.2497 17.9725 16.2383 17.9877 16.2203 18.0082C16.2115 18.0184 16.2009 18.0301 16.1886 18.043C16.1823 18.0495 16.1758 18.0563 16.1684 18.0634C16.165 18.067 16.1613 18.0707 16.1574 18.0744C16.1555 18.0763 16.1535 18.0782 16.1516 18.0801C16.1507 18.0811 16.1492 18.0825 16.1486 18.083C16.1471 18.0845 16.1455 18.0859 15.0025 16.9785ZM17.9067 26.4453C21.2074 29.6067 23.6894 30.8371 25.5628 31.114C26.5202 31.2554 27.292 31.1425 27.8776 30.9325C28.1646 30.8294 28.3933 30.708 28.5662 30.5964C28.6527 30.5406 28.7249 30.4875 28.7835 30.4406C28.8129 30.4173 28.8388 30.3955 28.8615 30.3755C28.873 30.3655 28.8836 30.3561 28.8933 30.3471C28.8983 30.3426 28.9028 30.3382 28.9073 30.334C28.9095 30.3319 28.9117 30.3299 28.9138 30.3278C28.9149 30.3267 28.9166 30.3253 28.9171 30.3249C28.9186 30.3234 28.9201 30.322 27.7771 29.2144C26.6341 28.1071 26.6356 28.1057 26.6371 28.1042C26.6375 28.1038 26.639 28.1023 26.6401 28.1013C26.6421 28.0994 26.644 28.0975 26.646 28.0957C26.6501 28.0921 26.6537 28.0886 26.6574 28.085C26.665 28.0782 26.6721 28.0719 26.6788 28.0659C26.6922 28.0542 26.7043 28.044 26.7151 28.0357C26.7363 28.0186 26.7521 28.0078 26.7618 28.0013C26.7819 27.9884 26.7778 27.9943 26.7458 28.0057C26.6929 28.0247 26.4808 28.0898 26.0546 28.0267C25.1612 27.8949 23.2796 27.187 20.1928 24.2305L17.9067 26.4453ZM14.5334 6.41559C12.3301 3.58048 7.99762 3.13187 5.36635 5.65221L7.65245 7.86701C8.80168 6.76621 10.8428 6.87825 11.9378 8.28736L14.5334 6.41559ZM3.24601 13.2732C3.20349 12.5525 3.54661 11.7997 4.25974 11.1167L1.97363 8.90188C0.812208 10.0143 -0.100859 11.5891 0.00896758 13.4504L3.24601 13.2732ZM35.0648 38.3857C34.4709 38.9548 33.8341 39.2752 33.1938 39.3327L33.4947 42.4425C35.0826 42.2998 36.3836 41.5271 37.3509 40.6005L35.0648 38.3857ZM16.7655 17.4921C18.8935 15.4538 19.0517 12.2297 17.2589 9.92285L14.6634 11.7946C15.5356 12.9169 15.4059 14.3899 14.4794 15.2773L16.7655 17.4921ZM37.3405 31.1465C39.1082 32.0722 39.3836 34.249 38.1355 35.4446L40.4215 37.6594C43.3186 34.8845 42.4252 30.2543 38.889 28.4026L37.3405 31.1465ZM29.9047 29.3789C30.7347 28.5839 32.0707 28.387 33.2109 28.9839L34.7594 26.24C32.4172 25.0134 29.5104 25.3522 27.6184 27.1641L29.9047 29.3789Z" fill="#B1C900"/>
</svg>
