<svg width="62" height="62" viewBox="0 0 62 62" fill="none" xmlns="http://www.w3.org/2000/svg">
<path d="M31 0.280029C14.0336 0.280029 0.279999 14.0336 0.279999 31C0.279999 47.9664 14.0336 61.72 31 61.72C47.9664 61.72 61.72 47.9664 61.72 31C61.72 14.0336 47.9664 0.280029 31 0.280029ZM42.8144 34.9392C42.8144 34.9392 45.5312 37.6208 46.2 38.8656C46.2192 38.8912 46.2288 38.9168 46.2352 38.9296C46.5072 39.3872 46.5712 39.7424 46.4368 40.008C46.2128 40.4496 45.4448 40.6672 45.1824 40.6864H40.3824C40.0496 40.6864 39.352 40.6 38.5072 40.0176C37.8576 39.5632 37.2176 38.8176 36.5936 38.0912C35.6624 37.0096 34.856 36.0752 34.0432 36.0752C33.94 36.0751 33.8374 36.0913 33.7392 36.1232C33.1248 36.3216 32.3376 37.1984 32.3376 39.5344C32.3376 40.264 31.7616 40.6832 31.3552 40.6832H29.1568C28.408 40.6832 24.5072 40.4208 21.0512 36.776C16.8208 32.312 13.0128 23.3584 12.9808 23.2752C12.7408 22.696 13.2368 22.3856 13.7776 22.3856H18.6256C19.272 22.3856 19.4832 22.7792 19.6304 23.128C19.8032 23.5344 20.4368 25.1504 21.4768 26.968C23.1632 29.9312 24.1968 31.1344 25.0256 31.1344C25.181 31.1326 25.3336 31.0931 25.4704 31.0192C26.552 30.4176 26.3504 26.5616 26.3024 25.7616C26.3024 25.6112 26.2992 24.0368 25.7456 23.2816C25.3488 22.7344 24.6736 22.5264 24.264 22.4496C24.4298 22.2209 24.6482 22.0354 24.9008 21.9088C25.6432 21.5376 26.9808 21.4832 28.3088 21.4832H29.048C30.488 21.5024 30.8592 21.5952 31.3808 21.7264C32.4368 21.9792 32.4592 22.6608 32.3664 24.9936C32.3376 25.656 32.3088 26.4048 32.3088 27.288C32.3088 27.48 32.2992 27.6848 32.2992 27.9024C32.2672 29.0896 32.2288 30.4368 33.0672 30.9904C33.1766 31.059 33.3029 31.0956 33.432 31.096C33.7232 31.096 34.6 31.096 36.9744 27.0224C37.7067 25.7113 38.343 24.3488 38.8784 22.9456C38.9264 22.8624 39.0672 22.6064 39.2336 22.5072C39.3564 22.4446 39.4926 22.4128 39.6304 22.4144H45.3296C45.9504 22.4144 46.376 22.5072 46.456 22.7472C46.5968 23.128 46.4304 24.2896 43.8288 27.8128L42.6672 29.3456C40.3088 32.4368 40.3088 32.5936 42.8144 34.9392Z" fill="#B1C900"/>
</svg>
