<?xml version="1.0" standalone="no"?>
<!DOCTYPE svg PUBLIC "-//W3C//DTD SVG 20010904//EN"
 "http://www.w3.org/TR/2001/REC-SVG-20010904/DTD/svg10.dtd">
<svg version="1.0" xmlns="http://www.w3.org/2000/svg"
 width="992.000000pt" height="992.000000pt" viewBox="0 0 992.000000 992.000000"
 preserveAspectRatio="xMidYMid meet">
<metadata>
Created by potrace 1.14, written by Peter Selinger 2001-2017
</metadata>
<g transform="translate(0.000000,992.000000) scale(0.100000,-0.100000)"
fill="#000000" stroke="none">
<path d="M5442 7381 c0 -165 -3 -304 -6 -310 -4 -6 -4 -11 1 -11 9 0 8 -601
-1 -625 -3 -8 -2 -15 2 -15 8 0 7 -483 -2 -505 -3 -8 -2 -15 2 -15 4 0 6 -44
6 -97 l-1 -98 -132 0 -131 0 -1 -30 c0 -16 -1 -276 -2 -577 -2 -481 0 -548 13
-549 8 -1 65 -2 127 -3 61 0 114 -4 118 -7 3 -4 6 -24 5 -45 0 -22 0 -48 0
-59 0 -43 -1 -581 -1 -590 0 -5 0 -32 0 -60 0 -27 0 -58 0 -67 0 -10 0 -65 0
-123 0 -58 0 -111 0 -117 1 -150 1 -576 1 -612 0 -27 2 -51 4 -53 2 -3 0 -17
-4 -33 -4 -16 -6 -31 -3 -34 3 -3 6 -83 5 -178 l0 -173 726 0 727 0 0 1067 c0
586 4 1070 8 1075 5 4 71 8 148 8 l139 1 41 -106 c123 -316 223 -570 240 -607
10 -24 19 -46 19 -50 0 -7 124 -324 155 -398 7 -16 40 -100 73 -185 33 -85 81
-209 107 -275 26 -66 80 -205 121 -310 41 -104 78 -197 83 -205 7 -13 115 -15
870 -15 569 0 861 3 861 10 0 5 -23 62 -51 125 -27 63 -52 122 -54 130 -2 8
-10 29 -18 45 -9 17 -43 95 -77 175 -68 163 -134 315 -160 375 -10 22 -66 153
-124 290 -59 138 -113 264 -120 280 -8 17 -33 75 -56 130 -24 55 -58 136 -77
180 -104 238 -218 507 -238 555 -13 30 -82 192 -154 360 -72 168 -131 308
-131 313 0 7 84 178 603 1227 116 234 211 427 212 430 2 5 315 640 322 653 2
4 -339 6 -759 5 l-762 -3 -47 -95 c-26 -52 -98 -198 -159 -325 -61 -126 -139
-286 -173 -355 -34 -69 -61 -128 -59 -132 1 -5 -2 -8 -8 -8 -5 0 -10 -4 -10
-10 0 -5 -43 -98 -96 -207 -53 -109 -153 -313 -221 -453 -68 -140 -139 -284
-158 -320 l-34 -65 -118 -1 c-65 0 -123 2 -128 5 -7 4 -11 320 -10 986 l0 980
-726 3 -727 2 0 -299z"/>
<path d="M205 7659 c-4 -6 -7 -267 -4 -311 0 -7 0 -31 -1 -53 0 -22 1 -129 2
-238 2 -108 -1 -197 -5 -197 -5 0 -5 -4 -2 -10 3 -5 6 -101 5 -212 -1 -213 -1
-230 1 -250 0 -7 0 -31 -1 -53 0 -22 1 -129 2 -238 2 -108 -1 -197 -5 -197 -5
0 -5 -4 -2 -10 3 -5 6 -101 5 -212 -1 -213 -1 -230 1 -250 0 -7 0 -31 -1 -53
0 -22 1 -129 2 -238 2 -108 1 -197 -2 -197 -3 0 -4 -18 -2 -39 3 -34 0 -41
-21 -53 -59 -31 -140 -127 -153 -183 -2 -5 -7 -25 -13 -43 -13 -43 -8 -189 7
-204 7 -7 12 -20 12 -29 0 -22 49 -95 87 -129 81 -74 186 -103 288 -79 151 36
259 179 261 349 1 41 -1 80 -5 85 -3 6 -7 19 -8 29 -4 25 -49 105 -77 137 -13
15 -42 39 -65 54 -35 24 -41 33 -41 64 -1 60 -1 2117 0 2258 l0 133 953 2
c627 2 951 6 951 13 -3 18 -16 110 -19 135 -2 14 -6 63 -10 110 -3 47 -8 92
-11 100 -3 13 -130 15 -1065 15 -583 0 -1063 -3 -1064 -6z"/>
<path d="M2605 7660 c-1 -3 -1 -12 0 -20 1 -8 5 -55 9 -105 4 -49 9 -99 11
-110 2 -11 7 -42 11 -70 9 -74 11 -81 33 -190 22 -105 23 -108 66 -250 101
-330 286 -661 514 -920 85 -96 271 -271 374 -351 106 -82 289 -207 367 -250
19 -10 42 -24 50 -30 14 -11 318 -167 330 -169 3 -1 25 -10 49 -20 l45 -19
-70 -23 c-171 -57 -277 -143 -278 -224 0 -43 17 -67 61 -86 71 -29 145 -31
293 -8 26 4 40 3 33 -2 -12 -8 -40 -57 -87 -148 -11 -22 -21 -42 -21 -45 -1
-3 -19 -41 -39 -85 -21 -44 -54 -114 -73 -155 -66 -143 -157 -325 -181 -365
-62 -99 -80 -125 -138 -201 -74 -96 -199 -215 -292 -277 -76 -51 -222 -130
-222 -121 0 4 -6 1 -14 -5 -13 -11 -135 -58 -169 -66 -65 -14 -165 -50 -156
-55 13 -8 304 -5 339 4 14 3 36 8 50 11 115 22 291 83 381 132 146 79 288 202
362 313 43 64 45 61 15 -17 -56 -151 -147 -281 -318 -454 -106 -108 -194 -186
-285 -254 -22 -17 -46 -36 -53 -43 -8 -6 -35 -26 -60 -44 -26 -18 -53 -37 -59
-44 -7 -7 -29 -22 -50 -35 -21 -13 -40 -26 -43 -29 -15 -19 -485 -310 -500
-310 -6 0 -10 -3 -10 -7 0 -5 -19 -17 -43 -28 -23 -11 -44 -23 -47 -26 -3 -3
-25 -16 -48 -28 -24 -12 -42 -25 -39 -27 12 -13 258 3 357 22 14 2 36 6 50 9
64 12 90 18 155 38 39 12 72 22 75 22 3 1 14 5 25 9 236 90 403 195 560 351
136 135 211 240 299 415 26 52 50 97 53 100 4 3 4 1 1 -5 -3 -5 -24 -67 -46
-137 -101 -311 -230 -578 -364 -750 -17 -21 -28 -38 -25 -38 2 0 33 10 68 21
35 12 69 22 74 24 49 11 260 110 374 175 102 59 283 181 317 214 6 6 31 27 55
46 24 19 95 86 156 147 l113 113 1 52 c0 29 0 109 -1 178 -1 69 -1 132 -1 140
0 8 0 116 0 240 0 124 0 232 0 240 0 8 0 116 0 240 0 124 0 232 0 240 0 8 0
96 0 195 0 99 0 185 0 190 0 19 1 300 0 315 0 8 0 80 0 160 0 80 0 152 0 160
0 8 0 80 0 160 0 80 0 152 0 160 0 8 0 80 0 160 0 80 0 152 0 160 0 8 0 80 0
160 0 80 0 152 0 160 0 8 1 80 1 160 1 80 1 152 1 161 -1 30 -118 151 -277
289 -80 70 -280 211 -334 236 -8 4 -26 15 -41 25 -14 10 -30 15 -36 11 -27
-18 -118 -264 -142 -382 -33 -167 -36 -211 -36 -482 0 -135 -3 -241 -8 -235
-4 7 -16 41 -28 77 -20 64 -24 79 -34 121 -2 11 -6 28 -9 37 -20 65 -30 176
-29 302 2 139 6 200 14 200 3 0 5 10 4 23 -1 12 2 32 6 45 5 13 11 37 14 55 8
44 85 270 96 281 25 27 7 43 -98 84 -89 35 -164 60 -228 78 -92 26 -126 34
-155 38 -19 2 -42 7 -51 11 -9 3 -16 1 -16 -7 0 -12 -9 -91 -18 -158 -27 -197
-26 -644 1 -805 3 -16 7 -45 10 -62 2 -18 9 -52 14 -75 6 -24 13 -54 16 -68
29 -146 136 -377 231 -500 28 -36 24 -33 -22 15 -137 145 -252 330 -337 540
-11 28 -22 57 -24 65 -2 8 -17 65 -34 125 -16 61 -32 126 -35 145 -3 20 -7 47
-10 60 -12 60 -19 187 -18 335 0 131 7 280 13 280 1 0 3 21 5 47 2 27 6 57 10
68 3 11 3 20 -2 21 -4 0 -17 3 -28 5 -27 7 -776 10 -780 4z"/>
<path d="M748 7100 c-2 -8 -3 -91 -3 -185 l1 -170 882 -1 c813 -2 882 0 882
15 0 9 -9 41 -20 71 -11 30 -22 64 -25 75 -2 11 -16 63 -31 115 l-26 95 -828
0 c-729 0 -829 -2 -832 -15z"/>
<path d="M748 6550 c-3 -12 -2 -332 1 -351 2 -10 2031 -6 2031 4 0 5 -16 36
-36 68 -19 33 -62 112 -95 177 l-59 117 -920 0 c-816 1 -919 -1 -922 -15z"/>
<path d="M747 6006 c-2 -9 -1 -342 2 -356 1 -7 2471 -7 2471 0 0 3 -29 35 -63
71 -66 70 -120 134 -177 208 -19 25 -43 55 -53 66 -18 20 -29 20 -1097 21
-750 0 -1080 -3 -1083 -10z"/>
<path d="M749 5436 c-3 -90 -4 -313 -1 -326 3 -13 183 -15 1558 -15 854 0
1555 3 1557 7 1 4 -41 37 -93 74 -52 37 -97 70 -100 74 -3 3 -41 35 -85 70
-78 63 -89 72 -148 123 l-29 24 -1329 0 -1329 0 -1 -31z"/>
<path d="M831 4870 c41 -66 77 -174 85 -254 5 -51 11 -66 23 -67 75 -5 3125
-3 3133 2 7 4 6 14 -1 28 -7 11 -9 21 -6 21 3 0 -18 36 -45 81 -63 100 -72
121 -75 184 l-3 50 -1570 1 -1570 2 29 -48z"/>
<path d="M895 4343 c-17 -72 -73 -177 -122 -233 -13 -13 -23 -29 -24 -35 -5
-48 -3 -75 6 -76 65 -6 3105 -2 3118 4 9 4 17 12 17 16 0 5 16 33 35 62 19 30
35 59 35 66 0 7 5 13 10 13 6 0 10 5 10 12 0 6 12 41 26 77 15 36 28 78 30 94
l4 27 -1569 0 -1569 0 -7 -27z"/>
<path d="M825 3820 l-79 -5 -1 -182 c0 -115 4 -183 10 -184 6 0 540 0 1189 0
l1178 0 133 66 c74 36 176 94 228 128 101 67 217 157 217 170 0 4 -16 7 -35 7
-86 1 -236 1 -242 -1 -5 -1 -12 -1 -16 0 -11 2 -688 2 -702 0 -5 -1 -14 -1
-20 1 -11 2 -206 2 -220 -1 -5 -1 -14 -1 -18 0 -11 2 -688 2 -702 0 -5 -1 -14
-1 -20 1 -11 2 -206 2 -220 -1 -5 -1 -14 -1 -20 1 -11 2 -206 2 -220 -1 -5 -1
-14 0 -20 1 -23 4 -297 1 -302 -4 -3 -3 -13 -2 -22 2 -9 4 -52 5 -96 2z"/>
<path d="M774 3271 c-10 -2 -21 -7 -24 -11 -3 -5 -5 -86 -5 -182 l1 -173 1215
-3 1216 -2 38 32 c63 53 185 171 185 178 0 4 -6 7 -12 7 -19 1 -119 14 -148
19 -14 2 -41 7 -60 10 -112 17 -314 88 -331 115 -4 7 -330 11 -1031 12 -563 1
-1033 0 -1044 -2z"/>
<path d="M756 2714 c-9 -8 -14 -292 -7 -356 1 -5 344 -8 764 -8 l763 0 155 79
c164 84 271 141 279 150 3 3 24 16 48 29 66 37 178 112 167 113 -5 0 -493 2
-1084 2 -753 2 -1078 -1 -1085 -9z"/>
</g>
</svg>
