<svg width="212" height="45" fill="none" xmlns="http://www.w3.org/2000/svg"><path fill-rule="evenodd" clip-rule="evenodd" d="M75.719 26.83v-5.076c0-4.068-2.053-5.998-7.187-5.998-1.768 0-4.278.446-6.217 1.277l1.369 4.127c1.511-.535 3.08-.832 3.907-.832 1.597 0 1.968.327 1.968 1.782v.208h-.799c-4.934 0-7.529 1.959-7.529 5.492 0 2.97 2.025 5.137 5.077 5.137 1.71 0 3.479-.535 4.62-2.316.94 1.514 2.338 2.019 4.363 2.167l1.283-4.186c-.684-.267-.855-.713-.855-1.782zm-7.415 1.515c-.542 0-.941-.505-.941-1.188 0-1.04.599-1.484 1.91-1.484h.286v2.018c-.285.357-.742.654-1.255.654zM79.013 16.38l-.314 6.027c-.257 4.572-.513 4.75-2.139 5.67l1.512 4.602c5.247-.95 5.732-3.592 6.302-10.064l.138-1.604h1.189v11.282h6.33V16.38H79.014zm29.731-.624c-4.078 0-6.502 2.375-7.301 6.384h-1.369v-5.76h-6.331v15.913h6.331v-5.908h1.312c.77 4.364 3.28 6.562 7.358 6.562 4.364 0 7.529-3.266 7.529-8.551 0-5.73-3.194-8.64-7.529-8.64zm0 12.5c-.97 0-1.255-.95-1.255-3.95 0-2.76.285-3.889 1.255-3.889s1.255.95 1.255 3.979c0 2.79-.342 3.86-1.255 3.86zm13.803-12.5c-2.652 0-4.791.624-6.645 1.87l2.881 3.326c.941-.594 1.768-.89 2.795-.89.741 0 1.055.444 1.055 1.038 0 .683-.171 1.188-1.112 1.188h-1.997l-.342 3.89h2.738c1.112 0 1.312.534 1.312 1.157 0 .594-.2 1.158-1.369 1.158-1.141 0-2.053-.119-3.479-.92l-2.881 3.503c1.74 1.277 3.936 1.87 6.559 1.87 4.649 0 7.615-1.721 7.615-5.136 0-2.375-1.454-3.592-4.306-3.948 2.31-.565 3.622-1.782 3.622-3.623 0-2.76-2.71-4.483-6.446-4.483zm23.101.624h-6.046l-3.793 10.154c.541-1.93.912-3.652.912-5.76V16.38h-5.96v15.913h6.017l3.85-9.975c-.513 1.93-.912 3.681-.912 5.76v4.215h5.932V16.38zm-118.043-.53c.107-.028.212-.052.317-.072-6.573-2.72-10.37-7.023-11.392-12.909a19.182 19.182 0 01-.25-2.247h3.79c.434 0 .864.02 1.289.056-.716 4.503.354 8.085 3.208 10.747C22.54 9.305 21.886 5.777 22.6.84c1.22.213 2.395.577 3.503 1.072-1.207 2.512-1.274 4.958-.2 7.337-.3-2.903.056-5.208 1.066-6.916a15.612 15.612 0 014.284 3.328v21.993c-1.948 2.145-4.454 3.735-7.27 4.51 1.129-1.319 2.075-3.3 2.839-5.944-1.552 4.031-5.35 6.265-10.053 6.18 5.553-2.958 9.364-5.881 10.011-8.551-1.504 2.623-5.384 3.552-7.503 3.133 6.38-1.356 6.684-5.68 8.885-9.237l-.089.024c-1.174.312-2.232.134-2.361-.395-.13-.53.718-1.212 1.892-1.524zM2.926 17.53a2.18 2.18 0 011.254 1.994c0 1.202-.936 2.176-2.09 2.176S0 20.725 0 19.523c0-.892.516-1.659 1.254-1.994V.622h13.37-.022c.042.773.126 1.522.252 2.247H2.926v14.66zm15.441 12.917H4.665v2.247h9.54c1.577-.713 2.965-1.461 4.162-2.247zm-.659-3.314H4.666v2.247H19.85a15.242 15.242 0 001.455-1.31c-1.77-.145-2.969-.458-3.596-.936zm5.505-3.314H4.665v2.247H19.46c1.573-.654 2.815-1.4 3.754-2.247zm2.069-3.313H5.646a3.863 3.863 0 01-.98 1.752v.495h19.531a6.28 6.28 0 001.085-2.247zm-.61-3.314H5.007a3.91 3.91 0 01.76 2.247h19.698c.06-.658-1.046-1.26-.793-2.247zm-3.353-3.313H4.665v2.246h19.603a29.216 29.216 0 01-2.949-2.246zm-3.12-3.315H4.665v2.247h15.507a21.2 21.2 0 01-1.973-2.247zm-2-3.313H4.666v2.246h12.782A17.681 17.681 0 0116.2 7.25zm-1.134-3.314h-10.4v2.247H15.75a16.996 16.996 0 01-.684-2.247z" fill="#324146"/><path fill-rule="evenodd" clip-rule="evenodd" d="M159.1 21.369h-2.85v-1.706h-3.931v17.054h3.931v-1.705h2.85v3.206c0 .59-.163 1.057-.491 1.398-.327.341-.775.512-1.343.512h-5.963c-.568 0-1.016-.17-1.343-.512-.328-.34-.492-.807-.492-1.398V18.162c0-.59.164-1.057.492-1.398.327-.341.775-.512 1.343-.512h5.963c.568 0 1.016.17 1.343.512.328.341.491.807.491 1.398v3.207zm8.322 18.759h-2.85V19.663h-3.506v-3.41h9.829v3.41h-3.473v20.465zm15.071 0h-2.85V31.26h-3.932v8.868h-2.85V18.162c0-.59.164-1.057.491-1.398.328-.341.776-.512 1.343-.512h5.963c.568 0 1.016.17 1.343.512.328.341.492.807.492 1.398v21.966zm-2.85-12.28v-8.185h-3.932v8.186h3.932zm7.993 12.28h-2.85V16.252h7.798c.567 0 1.015.17 1.343.512.328.341.492.807.492 1.398V29.01c0 .59-.164 1.057-.492 1.398-.328.341-.776.512-1.343.512h-4.948v9.209zm0-12.62h3.932v-7.845h-3.932v7.845zm15.104 12.62h-2.85V19.663h-3.506v-3.41h9.829v3.41h-3.473v20.465z" fill="#B1C900"/><path fill-rule="evenodd" clip-rule="evenodd" d="M4.318 34.453v5.708h141.335v-5.708H4.318zM60.258.521h-9.526L44.718 12.45h-1.624V.52h-9.087v11.93h-1.624l-.023-.046v7.038h1.647V32.42h9.086V19.441h1.844l5.268 12.978h10.842l-7.945-17.914L60.258.521z" fill="#324146"/><path fill-rule="evenodd" clip-rule="evenodd" d="M62.781 7.2H206.19v5.709H62.781V7.2z" fill="#B1C900"/></svg>