<svg height="64" width="64" xmlns="http://www.w3.org/2000/svg" viewBox="0 0 512 512"><path d="M256 0C114.618 0 0 114.618 0 256s114.618 256 256 256 256-114.618 256-256S397.382 0 256 0zm0 469.333c-117.818 0-213.333-95.515-213.333-213.333S138.182 42.667 256 42.667 469.333 138.182 469.333 256 373.818 469.333 256 469.333z"/><path d="M375.467 238.933l-170.667-128c-14.064-10.548-34.133-.513-34.133 17.067v256c0 17.58 20.07 27.615 34.133 17.067l170.667-128c11.377-8.534 11.377-25.6 0-34.134zm-162.134 102.4V170.667L327.111 256l-113.778 85.333z"/></svg>