<svg width="27" height="24" fill="none" xmlns="http://www.w3.org/2000/svg"><path d="M17.752 15.641l.512-.453-1.19-1.063-.512.453 1.19 1.063zM19.985 15l2.15 1.038.805-1.317-2.149-1.039L19.985 15zm2.563 3.103l-1.598 1.412 1.19 1.064 1.598-1.413-1.19-1.063zm-2.572 1.867c-1.63.135-5.85.015-10.42-4.024l-1.19 1.064c4.986 4.407 9.732 4.622 11.767 4.453l-.157-1.493zm-10.42-4.024c-4.355-3.85-5.077-7.087-5.167-8.491l-1.684.085c.113 1.767 1.006 5.356 5.661 9.47l1.19-1.064zm1.547-6.18l.323-.285-1.19-1.064-.323.285 1.19 1.064zm.58-3.92L10.264 4.16l-1.35.899 1.418 1.684 1.35-.898zm-6.19-2.052l-1.766 1.56 1.19 1.064 1.766-1.56-1.19-1.065zm5.015 5.44a28.886 28.886 0 00-.596-.53l-.002.001-.003.003a.98.98 0 00-.143.157c-.06.08-.127.186-.184.319-.114.27-.176.628-.099 1.07.151.866.822 2.009 2.539 3.527l1.19-1.064c-1.607-1.42-1.99-2.285-2.061-2.692-.034-.194 0-.29.01-.312.006-.014.01-.016.002-.006a.29.29 0 01-.046.048.144.144 0 01-.01.01c-.001 0-.002 0-.597-.53zm1.512 4.547c1.718 1.518 3.01 2.109 3.985 2.242.498.068.9.014 1.204-.087a1.818 1.818 0 00.472-.237 1.004 1.004 0 00.064-.05l.004-.004.001-.001c.001 0 .002-.002-.593-.534a29.274 29.274 0 01-.592-.534l.003-.003.006-.005.011-.01a.451.451 0 01.044-.03c.01-.006.008-.003-.009.002-.027.01-.138.04-.36.01-.464-.063-1.444-.403-3.05-1.823l-1.19 1.064zm-1.756-9.62C9.117 2.8 6.863 2.583 5.493 3.793l1.19 1.064c.598-.529 1.66-.475 2.23.202l1.351-.899zM4.39 7.454c-.022-.347.157-.708.528-1.036l-1.19-1.064c-.604.534-1.08 1.29-1.022 2.185l1.684-.085zm16.561 12.06c-.309.273-.64.427-.974.455l.157 1.493c.826-.068 1.504-.44 2.007-.884l-1.19-1.064zM11.426 9.48c1.107-.98 1.19-2.528.257-3.635l-1.351.898c.454.54.386 1.247-.096 1.673l1.19 1.064zm10.709 6.557c.92.445 1.063 1.49.413 2.065l1.19 1.063c1.508-1.332 1.043-3.556-.797-4.445l-.806 1.317zm-3.87-.848c.431-.382 1.127-.477 1.72-.19l.806-1.318c-1.219-.59-2.732-.426-3.716.444l1.19 1.063z" fill="#000"/></svg>