<svg width="212" height="45" viewBox="0 0 212 45" fill="none" xmlns="http://www.w3.org/2000/svg">
<path fill-rule="evenodd" clip-rule="evenodd" d="M75.719 26.309V21.2321C75.719 17.1645 73.6654 15.2347 68.5319 15.2347C66.7638 15.2347 64.2543 15.6801 62.3148 16.5115L63.6838 20.6383C65.1954 20.1037 66.7638 19.8069 67.5909 19.8069C69.188 19.8069 69.5589 20.1335 69.5589 21.5883V21.7961H68.7603C63.8264 21.7961 61.2312 23.7556 61.2312 27.2888C61.2312 30.2577 63.2561 32.4251 66.3076 32.4251C68.0187 32.4251 69.787 31.8907 70.9276 30.1093C71.8688 31.6235 73.2664 32.1281 75.2911 32.2768L76.5743 28.0904C75.8901 27.8232 75.719 27.3778 75.719 26.309ZM68.3039 27.8232C67.7622 27.8232 67.3628 27.3184 67.3628 26.6355C67.3628 25.5964 67.9618 25.1512 69.2735 25.1512H69.5589V27.17C69.2735 27.5262 68.8173 27.8232 68.3039 27.8232ZM79.0129 15.8582L78.6993 21.8851C78.4425 26.4574 78.1858 26.6355 76.5602 27.5559L78.0717 32.1578C83.3193 31.2077 83.804 28.5656 84.3745 22.0932L84.5123 20.4899H85.7006V31.7719H92.0318V15.8582H79.0129ZM108.744 15.2347C104.666 15.2347 102.242 17.61 101.443 21.6181H100.074V15.8582H93.743V31.7719H100.074V25.8638H101.386C102.156 30.2279 104.666 32.4251 108.744 32.4251C113.107 32.4251 116.273 29.1592 116.273 23.8743C116.273 18.1442 113.079 15.2347 108.744 15.2347ZM108.744 27.7342C107.774 27.7342 107.489 26.7842 107.489 23.7853C107.489 21.0241 107.774 19.8959 108.744 19.8959C109.714 19.8959 109.999 20.8461 109.999 23.8743C109.999 26.6652 109.657 27.7342 108.744 27.7342ZM122.547 15.2347C119.895 15.2347 117.756 15.8582 115.902 17.1052L118.783 20.4305C119.724 19.8366 120.551 19.5398 121.577 19.5398C122.319 19.5398 122.633 19.985 122.633 20.5789C122.633 21.2619 122.462 21.7665 121.52 21.7665H119.524L119.182 25.6558H121.92C123.032 25.6558 123.232 26.1902 123.232 26.8138C123.232 27.4075 123.032 27.9717 121.863 27.9717C120.722 27.9717 119.81 27.853 118.384 27.0512L115.503 30.5547C117.243 31.8313 119.439 32.4251 122.062 32.4251C126.711 32.4251 129.677 30.7031 129.677 27.2888C129.677 24.9137 128.223 23.6962 125.371 23.3401C127.681 22.7759 128.993 21.5587 128.993 19.7179C128.993 16.9568 126.283 15.2347 122.547 15.2347ZM145.648 15.8582H139.602L135.809 26.0122C136.35 24.0823 136.721 22.3603 136.721 20.2524V15.8582H130.761V31.7719H136.778L140.628 21.7961C140.115 23.7259 139.716 25.4776 139.716 27.5559V31.7719H145.648V15.8582Z" fill="#324146"/>
<path fill-rule="evenodd" clip-rule="evenodd" d="M27.6047 15.329C27.7115 15.3008 27.8172 15.2766 27.9216 15.2565C21.3493 12.5364 17.5522 8.23362 16.5301 2.34759C16.4042 1.62234 16.3208 0.873764 16.279 0.100685H20.0687C20.5027 0.100685 20.9328 0.119659 21.3578 0.156613C20.6424 4.66001 21.7117 8.24202 24.5657 10.9033C22.5407 8.78399 21.8852 5.25603 22.6005 0.318563C23.8219 0.531397 24.996 0.895112 26.1044 1.39044C24.8969 3.90285 24.8303 6.34865 25.9033 8.72757C25.6047 5.82487 25.9602 3.51917 26.9703 1.81136C28.5786 2.65696 30.0266 3.78833 31.2535 5.13924V27.1328C29.3059 29.2774 26.8 30.8676 23.9841 31.6431C25.1128 30.3241 26.0592 28.3429 26.823 25.6988C25.2706 29.7296 21.4737 31.9633 16.77 31.8776C22.3228 28.9202 26.1336 25.997 26.7812 23.327C25.2774 25.9511 21.3967 26.8791 19.2783 26.4601C25.6574 25.1048 25.9617 20.7797 28.1625 17.2237C28.1331 17.2316 28.1037 17.2397 28.0743 17.2479C26.8996 17.5592 25.8423 17.3817 25.713 16.8522C25.5832 16.3223 26.4307 15.6402 27.6047 15.329ZM2.92603 17.007C3.66417 17.3429 4.18001 18.1096 4.18001 19.0019C4.18001 20.2037 3.24438 21.1774 2.09034 21.1774C0.935827 21.1774 0 20.2037 0 19.0019C0 18.1096 0.516143 17.3429 1.25418 17.007V0.100685H14.6241H14.6022C14.644 0.873764 14.7281 1.62234 14.8538 2.34759H2.92595L2.92603 17.007ZM18.3675 29.9245H4.66541V32.1712H14.2046C15.7823 31.4588 17.1702 30.7101 18.3675 29.9245ZM17.7085 26.611H4.66541V28.8579H19.8496C20.3865 28.4311 20.8715 27.9946 21.305 27.5478C19.535 27.4024 18.336 27.0899 17.7085 26.611ZM23.2131 23.2971H4.66541V25.544H19.4593C21.0319 24.89 22.2743 24.1434 23.2131 23.2971ZM25.2818 19.9833H5.64613C5.47462 20.6586 5.13029 21.2609 4.66541 21.7356V22.2302H24.1971C24.7171 21.5395 25.0755 20.7917 25.2818 19.9833ZM24.6721 16.6693H5.00737C5.46892 17.2945 5.74979 18.0716 5.76735 18.9162H25.4649C25.5257 18.2583 24.4195 17.6572 24.6721 16.6693ZM21.319 13.3561H4.66541V15.6028H24.2679C23.209 14.8934 22.2237 14.1451 21.319 13.3561ZM18.1992 10.0419H4.66541V12.2888H20.1715C19.4499 11.5722 18.7909 10.824 18.1992 10.0419ZM16.1996 6.72828H4.66541V8.97498H17.4473C16.976 8.25319 16.5588 7.50501 16.1996 6.72828ZM15.0646 3.41413H4.66541V5.66144H15.749C15.4719 4.93588 15.2429 4.18721 15.0646 3.41413Z" fill="#324146"/>
<g filter="url(#filter0_d_44_19)">
<path fill-rule="evenodd" clip-rule="evenodd" d="M159.1 20.8471H156.25V19.1417H152.319V36.1954H156.25V34.4902H159.1V37.6964C159.1 38.2873 158.937 38.7537 158.609 39.0945C158.282 39.4357 157.834 39.6062 157.266 39.6062H151.303C150.735 39.6062 150.287 39.4357 149.96 39.0945C149.632 38.7537 149.468 38.2873 149.468 37.6964V17.641C149.468 17.0497 149.632 16.5836 149.96 16.2425C150.287 15.9014 150.735 15.7308 151.303 15.7308H157.266C157.834 15.7308 158.282 15.9014 158.609 16.2425C158.937 16.5836 159.1 17.0497 159.1 17.641V20.8471ZM167.422 39.6062H164.572V19.1417H161.066V15.7308H170.895V19.1417H167.422V39.6062ZM182.493 39.6062H179.643V30.7382H175.711V39.6062H172.861V17.641C172.861 17.0497 173.024 16.5836 173.352 16.2425C173.68 15.9014 174.128 15.7308 174.695 15.7308H180.658C181.226 15.7308 181.674 15.9014 182.001 16.2425C182.329 16.5836 182.493 17.0497 182.493 17.641V39.6062ZM179.643 27.3275V19.1417H175.711V27.3275H179.643ZM187.636 39.6062H184.786V15.7308H192.583C193.151 15.7308 193.599 15.9014 193.927 16.2425C194.255 16.5836 194.418 17.0497 194.418 17.641V28.4871C194.418 29.0784 194.255 29.5445 193.927 29.8855C193.599 30.2267 193.151 30.3973 192.583 30.3973H187.636V39.6062ZM187.636 26.9864H191.568V19.1417H187.636V26.9864ZM202.74 39.6062H199.89V19.1417H196.384V15.7308H206.213V19.1417H202.74V39.6062Z" fill="#B1C900"/>
</g>
<path fill-rule="evenodd" clip-rule="evenodd" d="M4.31775 33.9318V39.64H145.653V33.9318H4.31775Z" fill="#324146"/>
<path fill-rule="evenodd" clip-rule="evenodd" d="M60.2574 0H50.7317L44.7176 11.9273H43.0936V0H34.0068V11.9273H32.3826L32.3599 11.882V18.9193H34.0065V31.8977H43.0933V18.9193H44.9368L50.2045 31.8977H61.0471L53.1016 13.9836L60.2574 0Z" fill="#324146"/>
<g filter="url(#filter1_d_44_19)">
<path fill-rule="evenodd" clip-rule="evenodd" d="M62.7814 6.67864H206.189V12.3871H62.7814V6.67864Z" fill="#B1C900"/>
</g>
<defs>
<filter id="filter0_d_44_19" x="149.468" y="15.7308" width="60.7449" height="27.8754" filterUnits="userSpaceOnUse" color-interpolation-filters="sRGB">
<feFlood flood-opacity="0" result="BackgroundImageFix"/>
<feColorMatrix in="SourceAlpha" type="matrix" values="0 0 0 0 0 0 0 0 0 0 0 0 0 0 0 0 0 0 127 0" result="hardAlpha"/>
<feOffset dx="2" dy="2"/>
<feGaussianBlur stdDeviation="1"/>
<feComposite in2="hardAlpha" operator="out"/>
<feColorMatrix type="matrix" values="0 0 0 0 0 0 0 0 0 0 0 0 0 0 0 0 0 0 0.4 0"/>
<feBlend mode="normal" in2="BackgroundImageFix" result="effect1_dropShadow_44_19"/>
<feBlend mode="normal" in="SourceGraphic" in2="effect1_dropShadow_44_19" result="shape"/>
</filter>
<filter id="filter1_d_44_19" x="62.7814" y="6.67864" width="147.407" height="9.70847" filterUnits="userSpaceOnUse" color-interpolation-filters="sRGB">
<feFlood flood-opacity="0" result="BackgroundImageFix"/>
<feColorMatrix in="SourceAlpha" type="matrix" values="0 0 0 0 0 0 0 0 0 0 0 0 0 0 0 0 0 0 127 0" result="hardAlpha"/>
<feOffset dx="2" dy="2"/>
<feGaussianBlur stdDeviation="1"/>
<feComposite in2="hardAlpha" operator="out"/>
<feColorMatrix type="matrix" values="0 0 0 0 0 0 0 0 0 0 0 0 0 0 0 0 0 0 0.4 0"/>
<feBlend mode="normal" in2="BackgroundImageFix" result="effect1_dropShadow_44_19"/>
<feBlend mode="normal" in="SourceGraphic" in2="effect1_dropShadow_44_19" result="shape"/>
</filter>
</defs>
</svg>
