<svg width="52" height="45" fill="none" xmlns="http://www.w3.org/2000/svg"><path d="M9.75 41.252H4.464C2.006 41.252 0 39.516 0 37.383V16.99c0-2.131 2.006-3.863 4.464-3.863h6.368c.589 0 1.152.207 1.564.576.406.37.624.861.604 1.371L11.918 39.45c-.045 1.002-1.005 1.801-2.168 1.801zM4.464 16.875c-.071 0-.132.053-.132.114v20.395c0 .062.06.114.132.114h3.199l.919-20.623H4.464zm36.689 24.377H14l1.25-28.126h5.977l3.656-8.868C25.934 1.71 28.743 0 31.865 0c2.153 0 4.195.809 5.601 2.215 1.407 1.406 2.042 3.27 1.737 5.11l-.96 5.801h7.242c3.59 0 6.51 2.527 6.51 5.634l-.05.409-4.287 16.673c-.132 3.001-3.001 5.41-6.505 5.41zM18.5 37.498h22.653c1.199 0 2.179-.843 2.179-1.885l.05-.408 4.276-16.616c-.101-.958-1.036-1.714-2.168-1.714H33.252l1.665-10.081c.127-.778-.127-1.53-.72-2.123-.595-.593-1.423-.918-2.332-.918-1.3 0-2.463.712-2.9 1.77L24.28 16.876h-4.86l-.92 20.623z" fill="#B1C900"/></svg>