<svg width="52" height="49" fill="none" xmlns="http://www.w3.org/2000/svg"><path d="M29.712 27.222c3.146.073 6.194-1.032 8.477-3.073 2.282-2.04 3.613-4.852 3.7-7.816-.087-2.964-1.418-5.774-3.7-7.815-2.283-2.042-5.331-3.147-8.477-3.074H17.333c-.383 0-.75.144-1.021.4-.27.254-.423.6-.423.962V24.5H13c-.383 0-.75.143-1.021.399-.271.255-.423.601-.423.962s.152.707.423.963c.27.255.638.398 1.021.398h2.889v2.723H13c-.383 0-.75.143-1.021.398a1.323 1.323 0 00-.423.963c0 .36.152.707.423.962.27.255.638.399 1.021.399h2.889v9.527c0 .361.152.708.423.963.27.255.638.399 1.021.399.383 0 .75-.144 1.022-.4.27-.254.423-.6.423-.962v-9.527h13c.383 0 .75-.144 1.021-.399.271-.255.423-.601.423-.962s-.152-.708-.423-.963a1.49 1.49 0 00-1.021-.398h-13v-2.723h10.934zM18.778 8.167h10.934c2.379-.07 4.69.75 6.43 2.28 1.74 1.53 2.768 3.645 2.858 5.886-.087 2.243-1.113 4.36-2.854 5.892-1.74 1.53-4.054 2.348-6.434 2.275H18.778V8.167z" fill="#B1C900"/></svg>